<svg width="5929" height="5782" viewBox="0 0 5929 5782" fill="none" xmlns="http://www.w3.org/2000/svg">
<g filter="url(#filter0_f_26_47)">
<path d="M2724.18 3900.42C2750.59 3831.83 2812.19 3475.28 2903.35 3432.93C2962.64 3405.39 2975.13 3476.64 3012.28 3530.87C3049.42 3585.1 3100.22 3821.22 3126.22 3943.3C3140.25 4094.24 3155.13 4313.42 3176.74 4484.12C3199.03 4660.19 3231.71 4810.25 3301.13 4977.64C3345.49 5084.62 3460.14 5165.07 3578 5177.95C3706.99 5192.04 3809.57 5157.94 3939.31 5134.07C4036.37 5116.21 4195.61 5010.7 4281.63 4952.75C4367.65 4894.8 4406.98 4838.3 4439.06 4790.55C4497.4 4703.7 4509.39 4540.91 4487.81 4439.68C4471.74 4364.3 4449.96 4300.88 4403.31 4241.23C4314.38 4127.53 4331.94 4150.57 4257.44 4074.26C4209.06 4024.71 4142.4 3944.55 4100.15 3914.24C4047.07 3876.17 3905.29 3795.6 3860.94 3742.63C3782.36 3686.18 3724.24 3638.01 3604.5 3529C3526.64 3458.11 3333.91 3267.32 3344.63 3197.35C3369.02 3038.13 3762.94 3193.55 3871.79 3197.35C3989.96 3201.48 4146.16 3248.1 4259.43 3283.49C4356.72 3313.89 4488.12 3344.69 4589.42 3359.87C4718.52 3379.21 4790.16 3404.68 4896.65 3404.68C4942.46 3404.68 5043.19 3381.63 5076.92 3359.87C5102.53 3343.35 5171.05 3283.1 5189.69 3259.47C5277.58 3148.06 5292.39 3103.39 5325.63 2981.89C5330.09 2854 5331.93 2801.38 5306.96 2686.14C5296.02 2635.64 5292.26 2588.24 5276.53 2516.33C5261.66 2448.34 5243.89 2372.34 5201.72 2313.02C5144.3 2232.22 5067.87 2201.57 5025.73 2187.56C4992.87 2176.64 4865.14 2166.4 4830.23 2165.18C4748.59 2162.33 4581.41 2195.64 4487.81 2230.96C4357.86 2280 4222.65 2333.75 4030.3 2451.34C3884.96 2540.2 3648.92 2638.55 3648.92 2638.55C3648.92 2638.55 3484 2695.22 3420.57 2712.84C3380.94 2720.85 3327.99 2718.78 3304.22 2695.22C3281.96 2673.15 3281.41 2586.01 3287.45 2553.91C3301.25 2480.52 3333.53 2256.29 3431.08 2129.74C3548.15 1977.88 3635.02 1780.17 3720.47 1607.09C3781.64 1483.18 3861.37 1393.12 3868.05 1201.72C3874.73 1010.31 3760.97 785.511 3598.61 709.224C3436.25 632.936 3195.34 591.226 3054.07 601.948C2982.41 607.386 2928.91 626.802 2857 638.591C2742.6 657.346 2660.13 702.036 2628.93 779.741C2590.13 876.379 2617.58 1049.85 2612.59 1192.58C2604.84 1414.57 2769.2 1792.92 2777.71 2069.13C2782.6 2227.66 2777.71 2320.82 2777.71 2320.82C2777.71 2320.82 2780.42 2574.89 2687.63 2574.3C2600.8 2573.75 2555.7 2551.77 2483.5 2522.05C2369.18 2475 2359.2 2467.85 2242.92 2417.4C2173.74 2387.38 2069.83 2326.02 1995.54 2274.76C1938.08 2235.12 1842.78 2144.67 1803.32 2103.9C1678.71 1975.13 1420.79 1849.21 1280.39 1827.53C1064.12 1794.14 944.43 1908.21 787.433 2079.78C744.617 2129.91 701.166 2205.64 671.124 2283.86C641.082 2362.08 635.883 2388.08 619.36 2462.11C594.971 2571.39 593.703 2627.64 619.359 2725.7C625.773 2750.21 644.963 2842.43 710.337 2879.48C754.911 2904.74 780.295 2914.46 845.544 2937.42C913.57 2961.36 1076.35 2988.27 1135.84 3005.6C1231.51 3033.48 1308.37 3045.52 1402.94 3062.06C1482.71 3076.02 1587.53 3080.57 1665.49 3083.29L1773.88 3087.07C1814.81 3088.5 1875.87 3089.78 1916.03 3087.07C1975.63 3083.06 2061.48 3072.76 2139.72 3067.38C2197.09 3063.44 2300.87 3045.14 2366.99 3045.14C2413.05 3045.14 2497.74 3050.53 2536.37 3115.72C2552.84 3143.52 2522.82 3227.12 2498.48 3247.21C2451.68 3285.84 2342.31 3341.36 2244.51 3406.19C2171.49 3454.59 2027.25 3536.05 1949.35 3576.36C1841.91 3631.94 1793.83 3669.27 1683.98 3725.96C1621.91 3757.99 1528.37 3805.13 1470.98 3840.56C1421.97 3870.82 1375.22 3917.38 1336.6 3958.16C1318.93 3976.81 1234.93 4118.55 1231.1 4150.57C1222.76 4220.4 1209.56 4289.49 1231.1 4381.61C1252.65 4473.72 1323.37 4620.55 1368.64 4686.15C1423.39 4765.5 1434.34 4771.04 1502.22 4838.06C1587.51 4922.25 1629.35 4948.62 1714.87 4998.45C1794.68 5044.95 1891.03 5074.37 1972.83 5086.04C2022.62 5093.15 2085.6 5082.18 2218.67 5044.97C2252.84 5035.41 2307.45 5008.54 2332.33 4986.28C2374.68 4948.39 2437.54 4808.7 2463.92 4733.8C2499.43 4632.95 2503.14 4611.04 2532.01 4529.53C2570.75 4420.13 2579.11 4374.03 2609.33 4274.76C2636.39 4185.88 2690.95 3986.76 2724.18 3900.42Z" fill="url(#paint0_radial_26_47)"/>
</g>
<g filter="url(#filter1_f_26_47)">
<path d="M2724.18 3900.42C2750.59 3831.83 2812.19 3475.28 2903.35 3432.93C2962.64 3405.39 2975.13 3476.64 3012.28 3530.87C3049.42 3585.1 3100.22 3821.22 3126.22 3943.3C3140.25 4094.24 3155.13 4313.42 3176.74 4484.12C3199.03 4660.19 3231.71 4810.25 3301.13 4977.64C3345.49 5084.62 3460.14 5165.07 3578 5177.95C3706.99 5192.04 3809.57 5157.94 3939.31 5134.07C4036.37 5116.21 4195.61 5010.7 4281.63 4952.75C4367.65 4894.8 4406.98 4838.3 4439.06 4790.55C4497.4 4703.7 4509.39 4540.91 4487.81 4439.68C4471.74 4364.3 4449.96 4300.88 4403.31 4241.23C4314.38 4127.53 4331.94 4150.57 4257.44 4074.26C4209.06 4024.71 4142.4 3944.55 4100.15 3914.24C4047.07 3876.17 3905.29 3795.6 3860.94 3742.63C3782.36 3686.18 3724.24 3638.01 3604.5 3529C3526.64 3458.11 3333.91 3267.32 3344.63 3197.35C3369.02 3038.13 3762.94 3193.55 3871.79 3197.35C3989.96 3201.48 4146.16 3248.1 4259.43 3283.49C4356.72 3313.89 4488.12 3344.69 4589.42 3359.87C4718.52 3379.21 4790.16 3404.68 4896.65 3404.68C4942.46 3404.68 5043.19 3381.63 5076.92 3359.87C5102.53 3343.35 5171.05 3283.1 5189.69 3259.47C5277.58 3148.06 5292.39 3103.39 5325.63 2981.89C5330.09 2854 5331.93 2801.38 5306.96 2686.14C5296.02 2635.64 5292.26 2588.24 5276.53 2516.33C5261.66 2448.34 5243.89 2372.34 5201.72 2313.02C5144.3 2232.22 5067.87 2201.57 5025.73 2187.56C4992.87 2176.64 4865.14 2166.4 4830.23 2165.18C4748.59 2162.33 4581.41 2195.64 4487.81 2230.96C4357.86 2280 4222.65 2333.75 4030.3 2451.34C3884.96 2540.2 3648.92 2638.55 3648.92 2638.55C3648.92 2638.55 3484 2695.22 3420.57 2712.84C3380.94 2720.85 3328 2718.78 3304.22 2695.22C3281.96 2673.15 3281.41 2586.01 3287.45 2553.91C3301.25 2480.52 3333.53 2256.29 3431.08 2129.74C3548.15 1977.88 3635.02 1780.17 3720.47 1607.09C3781.64 1483.18 3861.37 1393.12 3868.05 1201.72C3874.73 1010.31 3760.97 785.511 3598.61 709.224C3436.25 632.936 3195.34 591.226 3054.07 601.948C2982.41 607.386 2928.91 626.802 2857 638.591C2742.6 657.346 2660.13 702.036 2628.93 779.741C2590.13 876.379 2617.58 1049.85 2612.59 1192.58C2604.84 1414.57 2769.2 1792.92 2777.71 2069.13C2782.6 2227.66 2777.71 2320.82 2777.71 2320.82C2777.71 2320.82 2780.42 2574.89 2687.63 2574.3C2600.8 2573.75 2555.7 2551.77 2483.5 2522.05C2369.18 2475 2359.2 2467.85 2242.92 2417.4C2173.74 2387.38 2069.83 2326.02 1995.54 2274.76C1938.08 2235.12 1842.78 2144.67 1803.32 2103.9C1678.71 1975.13 1420.79 1849.21 1280.39 1827.53C1064.12 1794.14 944.431 1908.21 787.433 2079.78C744.618 2129.91 701.166 2205.64 671.124 2283.86C641.082 2362.08 635.883 2388.08 619.36 2462.11C594.97 2571.39 593.703 2627.64 619.359 2725.7C625.774 2750.21 644.963 2842.43 710.337 2879.48C754.911 2904.74 780.295 2914.46 845.544 2937.42C913.57 2961.36 1076.35 2988.27 1135.84 3005.6C1231.51 3033.48 1308.37 3045.52 1402.94 3062.06C1482.71 3076.02 1587.53 3080.57 1665.49 3083.29L1773.88 3087.07C1814.81 3088.5 1875.87 3089.78 1916.03 3087.07C1975.63 3083.06 2061.48 3072.76 2139.72 3067.38C2197.09 3063.44 2300.87 3045.14 2366.99 3045.14C2413.05 3045.14 2497.74 3050.53 2536.37 3115.72C2552.84 3143.52 2522.82 3227.12 2498.48 3247.21C2451.68 3285.84 2342.31 3341.36 2244.51 3406.19C2171.49 3454.59 2027.25 3536.05 1949.35 3576.36C1841.91 3631.94 1793.83 3669.27 1683.98 3725.96C1621.91 3757.99 1528.37 3805.13 1470.98 3840.56C1421.97 3870.82 1375.22 3917.38 1336.6 3958.16C1318.93 3976.81 1234.93 4118.55 1231.1 4150.57C1222.76 4220.4 1209.56 4289.49 1231.1 4381.61C1252.65 4473.72 1323.37 4620.55 1368.64 4686.15C1423.39 4765.5 1434.34 4771.04 1502.22 4838.06C1587.51 4922.25 1629.35 4948.62 1714.87 4998.45C1794.68 5044.95 1891.03 5074.37 1972.83 5086.04C2022.62 5093.15 2085.6 5082.18 2218.67 5044.97C2252.84 5035.41 2307.45 5008.54 2332.33 4986.28C2374.68 4948.39 2437.54 4808.7 2463.92 4733.8C2499.43 4632.95 2503.14 4611.04 2532.01 4529.53C2570.75 4420.13 2579.11 4374.03 2609.33 4274.76C2636.39 4185.88 2690.95 3986.76 2724.18 3900.42Z" fill="url(#paint1_radial_26_47)"/>
</g>
<g filter="url(#filter2_f_26_47)">
<path d="M2724.18 3900.42C2750.59 3831.83 2812.19 3475.28 2903.35 3432.93C2962.64 3405.39 2975.13 3476.64 3012.28 3530.87C3049.42 3585.1 3100.22 3821.22 3126.22 3943.3C3140.25 4094.24 3155.13 4313.42 3176.74 4484.12C3199.03 4660.19 3231.71 4810.25 3301.13 4977.64C3345.49 5084.62 3460.14 5165.07 3578 5177.95C3706.99 5192.04 3809.57 5157.94 3939.31 5134.07C4036.37 5116.21 4195.61 5010.7 4281.63 4952.75C4367.65 4894.8 4406.98 4838.3 4439.06 4790.55C4497.4 4703.7 4509.39 4540.91 4487.81 4439.68C4471.74 4364.3 4449.96 4300.88 4403.31 4241.23C4314.38 4127.53 4331.94 4150.57 4257.44 4074.26C4209.06 4024.71 4142.4 3944.55 4100.15 3914.24C4047.07 3876.17 3905.29 3795.6 3860.94 3742.63C3782.36 3686.18 3724.24 3638.01 3604.5 3529C3526.64 3458.11 3333.91 3267.32 3344.63 3197.35C3369.02 3038.13 3762.94 3193.55 3871.79 3197.35C3989.96 3201.48 4146.16 3248.1 4259.43 3283.49C4356.72 3313.89 4488.12 3344.69 4589.42 3359.87C4718.52 3379.21 4790.16 3404.68 4896.65 3404.68C4942.46 3404.68 5043.19 3381.63 5076.92 3359.87C5102.53 3343.35 5171.05 3283.1 5189.69 3259.47C5277.58 3148.06 5292.39 3103.39 5325.63 2981.89C5330.09 2854 5331.93 2801.38 5306.96 2686.14C5296.02 2635.64 5292.26 2588.24 5276.53 2516.33C5261.66 2448.34 5243.89 2372.34 5201.72 2313.02C5144.3 2232.22 5067.87 2201.57 5025.73 2187.56C4992.87 2176.64 4865.14 2166.4 4830.23 2165.18C4748.59 2162.33 4581.41 2195.64 4487.81 2230.96C4357.86 2280 4222.65 2333.75 4030.3 2451.34C3884.96 2540.2 3648.92 2638.55 3648.92 2638.55C3648.92 2638.55 3484 2695.22 3420.57 2712.84C3380.94 2720.85 3328 2718.78 3304.22 2695.22C3281.96 2673.15 3281.41 2586.01 3287.45 2553.91C3301.25 2480.52 3333.53 2256.29 3431.08 2129.74C3548.15 1977.88 3635.02 1780.17 3720.47 1607.09C3781.64 1483.18 3861.37 1393.12 3868.05 1201.72C3874.73 1010.31 3760.97 785.511 3598.61 709.224C3436.25 632.936 3195.34 591.226 3054.07 601.948C2982.41 607.386 2928.91 626.802 2857 638.591C2742.6 657.346 2660.13 702.036 2628.93 779.741C2590.13 876.379 2617.58 1049.85 2612.59 1192.58C2604.84 1414.57 2769.2 1792.92 2777.71 2069.13C2782.6 2227.66 2777.71 2320.82 2777.71 2320.82C2777.71 2320.82 2780.42 2574.89 2687.63 2574.3C2600.8 2573.75 2555.7 2551.77 2483.5 2522.05C2369.18 2475 2359.2 2467.85 2242.92 2417.4C2173.74 2387.38 2069.83 2326.02 1995.54 2274.76C1938.08 2235.12 1842.78 2144.67 1803.32 2103.9C1678.71 1975.13 1420.79 1849.21 1280.39 1827.53C1064.12 1794.14 944.431 1908.21 787.433 2079.78C744.618 2129.91 701.166 2205.64 671.124 2283.86C641.082 2362.08 635.883 2388.08 619.36 2462.11C594.97 2571.39 593.703 2627.64 619.359 2725.7C625.774 2750.21 644.963 2842.43 710.337 2879.48C754.911 2904.74 780.295 2914.46 845.544 2937.42C913.57 2961.36 1076.35 2988.27 1135.84 3005.6C1231.51 3033.48 1308.37 3045.52 1402.94 3062.06C1482.71 3076.02 1587.53 3080.57 1665.49 3083.29L1773.88 3087.07C1814.81 3088.5 1875.87 3089.78 1916.03 3087.07C1975.63 3083.06 2061.48 3072.76 2139.72 3067.38C2197.09 3063.44 2300.87 3045.14 2366.99 3045.14C2413.05 3045.14 2497.74 3050.53 2536.37 3115.72C2552.84 3143.52 2522.82 3227.12 2498.48 3247.21C2451.68 3285.84 2342.31 3341.36 2244.51 3406.19C2171.49 3454.59 2027.25 3536.05 1949.35 3576.36C1841.91 3631.94 1793.83 3669.27 1683.98 3725.96C1621.91 3757.99 1528.37 3805.13 1470.98 3840.56C1421.97 3870.82 1375.22 3917.38 1336.6 3958.16C1318.93 3976.81 1234.93 4118.55 1231.1 4150.57C1222.76 4220.4 1209.56 4289.49 1231.1 4381.61C1252.65 4473.72 1323.37 4620.55 1368.64 4686.15C1423.39 4765.5 1434.34 4771.04 1502.22 4838.06C1587.51 4922.25 1629.35 4948.62 1714.87 4998.45C1794.68 5044.95 1891.03 5074.37 1972.83 5086.04C2022.62 5093.15 2085.6 5082.18 2218.67 5044.97C2252.84 5035.41 2307.45 5008.54 2332.33 4986.28C2374.68 4948.39 2437.54 4808.7 2463.92 4733.8C2499.43 4632.95 2503.14 4611.04 2532.01 4529.53C2570.75 4420.13 2579.11 4374.03 2609.33 4274.76C2636.39 4185.88 2690.95 3986.76 2724.18 3900.42Z" stroke="url(#paint2_radial_26_47)" stroke-width="20" stroke-linecap="round" style="mix-blend-mode:darken"/>
</g>
<defs>
<filter id="filter0_f_26_47" x="0.589844" y="0.28418" width="5927.73" height="5780.97" filterUnits="userSpaceOnUse" color-interpolation-filters="sRGB">
<feFlood flood-opacity="0" result="BackgroundImageFix"/>
<feBlend mode="normal" in="SourceGraphic" in2="BackgroundImageFix" result="shape"/>
<feGaussianBlur stdDeviation="300" result="effect1_foregroundBlur_26_47"/>
</filter>
<filter id="filter1_f_26_47" x="545.09" y="544.784" width="4838.73" height="4691.97" filterUnits="userSpaceOnUse" color-interpolation-filters="sRGB">
<feFlood flood-opacity="0" result="BackgroundImageFix"/>
<feBlend mode="normal" in="SourceGraphic" in2="BackgroundImageFix" result="shape"/>
<feGaussianBlur stdDeviation="27.75" result="effect1_foregroundBlur_26_47"/>
</filter>
<filter id="filter2_f_26_47" x="545.69" y="545.385" width="4837.53" height="4690.75" filterUnits="userSpaceOnUse" color-interpolation-filters="sRGB">
<feFlood flood-opacity="0" result="BackgroundImageFix"/>
<feBlend mode="normal" in="SourceGraphic" in2="BackgroundImageFix" result="shape"/>
<feGaussianBlur stdDeviation="22.45" result="effect1_foregroundBlur_26_47"/>
</filter>
<radialGradient id="paint0_radial_26_47" cx="0" cy="0" r="1" gradientUnits="userSpaceOnUse" gradientTransform="translate(2947.45 2961) rotate(89.8217) scale(3496.26 3621.2)">
<stop offset="0.332304" stop-color="#00FFA6"/>
<stop offset="0.657446"/>
</radialGradient>
<radialGradient id="paint1_radial_26_47" cx="0" cy="0" r="1" gradientUnits="userSpaceOnUse" gradientTransform="translate(2947.45 2961) rotate(99.909) scale(2428.73 2515.53)">
<stop stop-color="#00FFA6"/>
<stop offset="1"/>
</radialGradient>
<radialGradient id="paint2_radial_26_47" cx="0" cy="0" r="1" gradientUnits="userSpaceOnUse" gradientTransform="translate(3061.59 2875.76) rotate(-81.2686) scale(2182.92 2266.92)">
<stop stop-color="white" stop-opacity="0"/>
<stop offset="0.95819" stop-color="#0B0B0B"/>
</radialGradient>
</defs>
</svg>
